<?xml version="1.0" encoding="UTF-8" standalone="no"?>
<!-- Created with Inkscape (http://www.inkscape.org/) -->

<svg
   width="512"
   height="512"
   viewBox="0 0 512 512"
   version="1.1"
   id="svg1"
   inkscape:version="1.3 (0e150ed6c4, 2023-07-21)"
   sodipodi:docname="logo.svg"
   inkscape:export-filename="png/logo.png"
   inkscape:export-xdpi="768"
   inkscape:export-ydpi="768"
   xmlns:inkscape="http://www.inkscape.org/namespaces/inkscape"
   xmlns:sodipodi="http://sodipodi.sourceforge.net/DTD/sodipodi-0.dtd"
   xmlns:xlink="http://www.w3.org/1999/xlink"
   xmlns="http://www.w3.org/2000/svg"
   xmlns:svg="http://www.w3.org/2000/svg">
  <sodipodi:namedview
     id="namedview1"
     pagecolor="#222222"
     bordercolor="#eeeeee"
     borderopacity="1"
     inkscape:showpageshadow="0"
     inkscape:pageopacity="0"
     inkscape:pagecheckerboard="0"
     inkscape:deskcolor="#333333"
     inkscape:document-units="px"
     showgrid="true"
     showguides="false"
     inkscape:zoom="0.84954413"
     inkscape:cx="57.089441"
     inkscape:cy="236.00893"
     inkscape:window-width="1850"
     inkscape:window-height="1011"
     inkscape:window-x="0"
     inkscape:window-y="0"
     inkscape:window-maximized="1"
     inkscape:current-layer="layer1"
     inkscape:export-bgcolor="#22222200">
    <inkscape:grid
       id="grid1"
       units="px"
       originx="0"
       originy="0"
       spacingx="1"
       spacingy="1"
       empcolor="#0099e5"
       empopacity="0.30196078"
       color="#0099e5"
       opacity="0.14901961"
       empspacing="5"
       dotted="false"
       gridanglex="30"
       gridanglez="30"
       visible="true" />
  </sodipodi:namedview>
  <defs
     id="defs1">
    <linearGradient
       id="linearGradientCol"
       inkscape:collect="always">
      <stop
         style="stop-color:#ff6633;stop-opacity:1;"
         offset="0"
         id="stop5" />
      <stop
         style="stop-color:#3366ff;stop-opacity:1;"
         offset="1"
         id="stop6" />
    </linearGradient>
    <inkscape:path-effect
       effect="lattice2"
       gridpoint0="12,44"
       gridpoint1="44,44"
       gridpoint2="12,52"
       gridpoint3="42,52"
       gridpoint4="20,44"
       gridpoint5="36,44"
       gridpoint6="20,52"
       gridpoint7="36,52"
       gridpoint8x9="28,44"
       gridpoint10x11="28,52"
       gridpoint12="12,46"
       gridpoint13="44,46"
       gridpoint14="12,50"
       gridpoint15="44,50"
       gridpoint16="20,46"
       gridpoint17="36,46"
       gridpoint18="20,50"
       gridpoint19="36,50"
       gridpoint20x21="28,46"
       gridpoint22x23="28,50"
       gridpoint24x26="12,48"
       gridpoint25x27="44,48"
       gridpoint28x30="20,48"
       gridpoint29x31="36,48"
       gridpoint32x33x34x35="28,48"
       id="path-effect2"
       is_visible="true"
       lpeversion="1"
       horizontal_mirror="false"
       vertical_mirror="false"
       perimetral="false"
       live_update="true" />
    <inkscape:path-effect
       effect="lattice2"
       gridpoint0="26.75,12"
       gridpoint1="52,12"
       gridpoint2="26.75,20"
       gridpoint3="50,20"
       gridpoint4="33.0625,12"
       gridpoint5="45.6875,12"
       gridpoint6="33.0625,20"
       gridpoint7="45.6875,20"
       gridpoint8x9="39.375,12"
       gridpoint10x11="39.375,20"
       gridpoint12="26.75,14"
       gridpoint13="52,14"
       gridpoint14="26.75,18"
       gridpoint15="52,18"
       gridpoint16="33.0625,14"
       gridpoint17="45.6875,14"
       gridpoint18="33.0625,18"
       gridpoint19="45.6875,18"
       gridpoint20x21="39.375,14"
       gridpoint22x23="39.375,18"
       gridpoint24x26="26.75,16"
       gridpoint25x27="52,16"
       gridpoint28x30="33.0625,16"
       gridpoint29x31="45.6875,16"
       gridpoint32x33x34x35="39.375,16"
       id="path-effect4"
       is_visible="true"
       lpeversion="1"
       horizontal_mirror="false"
       vertical_mirror="false"
       perimetral="false"
       live_update="true" />
    <inkscape:path-effect
       effect="lattice2"
       gridpoint0="26.75,23"
       gridpoint1="49.25,23"
       gridpoint2="26.75,31"
       gridpoint3="47.25,31"
       gridpoint4="32.375,23"
       gridpoint5="43.625,23"
       gridpoint6="32.375,31"
       gridpoint7="43.625,31"
       gridpoint8x9="38,23"
       gridpoint10x11="38,31"
       gridpoint12="26.75,25"
       gridpoint13="49.25,25"
       gridpoint14="26.75,29"
       gridpoint15="49.25,29"
       gridpoint16="32.375,25"
       gridpoint17="43.625,25"
       gridpoint18="32.375,29"
       gridpoint19="43.625,29"
       gridpoint20x21="38,25"
       gridpoint22x23="38,29"
       gridpoint24x26="26.75,27"
       gridpoint25x27="49.25,27"
       gridpoint28x30="32.375,27"
       gridpoint29x31="43.625,27"
       gridpoint32x33x34x35="38,27"
       id="path-effect5"
       is_visible="true"
       lpeversion="1"
       horizontal_mirror="false"
       vertical_mirror="false"
       perimetral="false"
       live_update="true" />
    <inkscape:path-effect
       effect="lattice2"
       gridpoint0="26.75,34"
       gridpoint1="46.5,34"
       gridpoint2="26.75,42"
       gridpoint3="44.5,42"
       gridpoint4="31.6875,34"
       gridpoint5="41.5625,34"
       gridpoint6="31.6875,42"
       gridpoint7="41.5625,42"
       gridpoint8x9="36.625,34"
       gridpoint10x11="36.625,42"
       gridpoint12="26.75,36"
       gridpoint13="46.5,36"
       gridpoint14="26.75,40"
       gridpoint15="46.5,40"
       gridpoint16="31.6875,36"
       gridpoint17="41.5625,36"
       gridpoint18="31.6875,40"
       gridpoint19="41.5625,40"
       gridpoint20x21="36.625,36"
       gridpoint22x23="36.625,40"
       gridpoint24x26="26.75,38"
       gridpoint25x27="46.5,38"
       gridpoint28x30="31.6875,38"
       gridpoint29x31="41.5625,38"
       gridpoint32x33x34x35="36.625,38"
       id="path-effect6"
       is_visible="true"
       lpeversion="1"
       horizontal_mirror="false"
       vertical_mirror="false"
       perimetral="false"
       live_update="true" />
    <linearGradient
       inkscape:collect="always"
       xlink:href="#linearGradientCol"
       id="linearGradientPos"
       x1="12"
       y1="12"
       x2="42"
       y2="52"
       gradientUnits="userSpaceOnUse" />
  </defs>
  <g
     inkscape:label="Layer 1"
     inkscape:groupmode="layer"
     id="layer1"
     style="display:inline">
    <g
       id="g6"
       transform="scale(8),translate(1.25)"
       style="fill:url(#linearGradientPos)">
      <rect
         style="fill:url(#linearGradientPos)"
         id="rect1"
         width="8"
         height="40"
         x="12"
         y="12"
         ry="2.5"
         rx="2.5" />
      <path
         style="fill:url(#linearGradientPos)"
         id="rect2"
         width="32"
         height="8"
         x="12"
         y="44"
         ry="2.5"
         rx="2.5"
         sodipodi:type="rect"
         inkscape:path-effect="#path-effect2"
         d="m 14.5,44 c 9.0018,0 27,0 27,0 1.385,0 2.22125,1.115 1.875,2.5 -0.25005,1.0002 -0.75,3 -0.75,3 -0.34625,1.385 -1.670313,2.5 -2.96875,2.5 -8.439187,0 -25.3125,0 -25.3125,0 C 13.045313,52 12,50.885 12,49.5 c 0,-1.0002 0,-3 0,-3 0,-1.385 1.115,-2.5 2.5,-2.5 z" />
      <rect
         style="fill:url(#linearGradientPos)"
         id="rect3"
         width="8"
         height="30"
         x="26.75"
         y="12"
         ry="2.5"
         rx="2.5" />
      <path
         style="fill:url(#linearGradientPos)"
         id="rect4"
         width="25.25"
         height="8"
         x="26.75"
         y="12"
         rx="2.5"
         ry="2.5"
         inkscape:label="rect4"
         sodipodi:type="rect"
         inkscape:path-effect="#path-effect4"
         d="m 29.25,12 c 6.75135,0 20.25,0 20.25,0 1.385,0 2.22125,1.115 1.875,2.5 -0.25005,1.0002 -0.75,3 -0.75,3 C 50.27875,18.885 48.973317,20 47.69802,20 41.48143,20 29.05198,20 29.05198,20 27.776683,20 26.75,18.885 26.75,17.5 c 0,-1.0002 0,-3 0,-3 0,-1.385 1.115,-2.5 2.5,-2.5 z" />
      <path
         style="fill:url(#linearGradientPos)"
         id="rect5"
         width="22.5"
         height="8"
         x="26.75"
         y="23"
         rx="2.5"
         ry="2.5"
         sodipodi:type="rect"
         inkscape:path-effect="#path-effect5"
         d="m 29.25,23 c 5.8345,0 17.5,0 17.5,0 1.385,0 2.22125,1.115 1.875,2.5 -0.25005,1.0002 -0.75,3 -0.75,3 C 47.52875,29.885 46.234111,31 44.972222,31 39.656344,31 29.027778,31 29.027778,31 27.765889,31 26.75,29.885 26.75,28.5 c 0,-1.0002 0,-3 0,-3 0,-1.385 1.115,-2.5 2.5,-2.5 z" />
      <path
         style="fill:url(#linearGradientPos)"
         id="rect6"
         width="19.75"
         height="8"
         x="26.75"
         y="34"
         ry="2.5"
         rx="2.5"
         sodipodi:type="rect"
         inkscape:path-effect="#path-effect6"
         d="m 29.25,34 c 4.91765,0 14.75,0 14.75,0 1.385,0 2.22125,1.115 1.875,2.5 -0.25005,1.0002 -0.75,3 -0.75,3 -0.34625,1.385 -1.627089,2.5 -2.871835,2.5 -4.419661,0 -13.25633,0 -13.25633,0 C 27.752089,42 26.75,40.885 26.75,39.5 c 0,-1.0002 0,-3 0,-3 0,-1.385 1.115,-2.5 2.5,-2.5 z" />
    </g>
  </g>
</svg>
